<?xml version="1.0" encoding="utf-8"?>
<!-- Generator: Adobe Illustrator 22.1.0, SVG Export Plug-In . SVG Version: 6.00 Build 0)  -->
<!DOCTYPE svg PUBLIC "-//W3C//DTD SVG 1.1//EN" "http://www.w3.org/Graphics/SVG/1.1/DTD/svg11.dtd">
<svg version="1.1" id="drawings" xmlns="http://www.w3.org/2000/svg"  x="0px" y="0px"
	 viewBox="0 0 180 288" style="enable-background:new 0 0 180 288;" xml:space="preserve">
<style type="text/css">
	.st0{fill:#231F20;}
</style>
<path class="st0" d="M120.5,163.1c0.2-0.4,0.2-1.2,0.2-1.2s0-4.8,0-5.2s-0.9-0.9-0.9-0.9v-44.6c0,0,0.2-0.4,0.5-1.2
	c0.2-0.4,0.1-1.1,0.1-1.1s0-1.2,0-4.1s-5.1-11.4-7.9-15.5s-7.4-11.8-9.5-16.1s-1.9-6.6-1.9-6.6l-0.1-7c0,0,0.9,0.1,1.5-0.2
	s0.5-1.2,0.5-1.2s-0.7-9.9-1-10.6c-0.5-1.1-2.4-1.4-2.4-1.4H90h0h-9.7c0,0-1.8,0.3-2.4,1.4c-0.3,0.7-1,10.6-1,10.6s-0.1,0.9,0.5,1.2
	s1.5,0.2,1.5,0.2l-0.1,7c0,0,0.2,2.2-1.9,6.6s-6.8,12-9.5,16.1s-7.9,12.6-7.9,15.5s0,4.1,0,4.1s0,0.8,0.1,1.1
	c0.3,0.7,0.5,1.2,0.5,1.2v44.6c0,0-0.9,0.4-0.9,0.9s0,5.2,0,5.2s0,0.9,0.2,1.2s1.1,1.1,1.1,1.1s3.1,8.1,3.1,19.5s-4.2,23.5-4.2,23.5
	s-0.2,5.5,0.9,11c1.1,5.5,3,10.2,5.5,11.6s6,1.5,8,1s6-3.4,6-3.4s1.8,3.4,4.6,4.4c2.9,1,5.5,0.8,5.5,0.8c0,0,2.6,0.2,5.5-0.8
	c2.9-1,4.6-4.4,4.6-4.4s4,2.9,6,3.4s5.5,0.4,8-1s4.4-6.1,5.5-11.6c1.1-5.5,0.9-11,0.9-11s-4.2-12.1-4.2-23.5s3.1-19.5,3.1-19.5
	S120.2,163.5,120.5,163.1z M115.7,155.7H64.5v-5.4h51.2V155.7z M115.7,116.8H64.5v-5.4h51.2V116.8z"/>
</svg>
