<?xml version="1.0" encoding="utf-8"?>
<!-- Generator: Adobe Illustrator 22.1.0, SVG Export Plug-In . SVG Version: 6.00 Build 0)  -->
<!DOCTYPE svg PUBLIC "-//W3C//DTD SVG 1.1//EN" "http://www.w3.org/Graphics/SVG/1.1/DTD/svg11.dtd">
<svg version="1.1" id="drawings" xmlns="http://www.w3.org/2000/svg"  x="0px" y="0px"
	 viewBox="0 0 288 180" style="enable-background:new 0 0 288 180;" xml:space="preserve">
<style type="text/css">
	.st0{fill:#231F20;}
</style>
<path class="st0" d="M225.1,96.4l5.3-5.3l-4.9-5.3l5-5.4l-5.1-5.1l5.5-5.5l-5.4-5.4l5.2-7h-18.8c0,0-3.2,2.2-8.7,4.7
	s-10.9,2.3-10.9,2.3H144h0H95.7c0,0-5.4,0.2-10.9-2.3s-8.7-4.7-8.7-4.7H57.3l5.2,7l-5.4,5.4l5.5,5.5l-5.1,5.1l5,5.4l-4.9,5.3
	l5.3,5.3l-5.8,5.8l5.3,5.3l-5.3,6.8l19,0c0,0,4.1-1.1,8.7-2.6c4.4-1.4,10.8-2,10.8-2H144h0h48.4c0,0,6.4,0.6,10.8,2
	c4.6,1.5,8.7,2.6,8.7,2.6l19,0l-5.3-6.8l5.3-5.3L225.1,96.4z M78.5,109.7H73V64.3h5.5V109.7z M215.2,109.7h-5.5V64.3h5.5V109.7z"/>
</svg>
